<?xml version="1.0" encoding="UTF-8" standalone="no"?>
<!-- Created with Inkscape (http://www.inkscape.org/) -->

<svg
   width="512"
   height="512"
   viewBox="0 0 512 512"
   version="1.1"
   id="svg5"
   xmlns="http://www.w3.org/2000/svg"
   xmlns:svg="http://www.w3.org/2000/svg">
  <defs
     id="defs2" />
  <g
     id="layer1">
    <path
       id="circle1070"
       style="color:#000000;fill:#ffffff;stroke-linejoin:round;-inkscape-stroke:none;fill-opacity:1"
       d="M 256 28.662109 C 130.63455 28.662109 28.662109 130.63455 28.662109 256 C 28.662109 381.36545 130.63455 483.33789 256 483.33789 C 381.36545 483.33789 483.33789 381.36545 483.33789 256 C 483.33789 130.63455 381.36545 28.662109 256 28.662109 z M 256 60.662109 C 364.07138 60.662109 451.33789 147.92862 451.33789 256 C 451.33789 349.98368 385.32751 428.20046 297.04297 447.00391 L 297.04297 394.88672 L 376.03516 315.89453 A 37.230179 37.230179 0 0 0 387.83203 317.89062 A 37.230179 37.230179 0 0 0 425.06055 280.66016 A 37.230179 37.230179 0 0 0 387.83203 243.42969 A 37.230179 37.230179 0 0 0 350.60156 280.66016 A 37.230179 37.230179 0 0 0 352.31055 291.68555 L 297.04297 346.95312 L 297.04297 258.81836 L 334.55273 258.81836 L 334.55273 115.6582 L 297.04297 115.6582 L 297.04297 93.144531 L 214.72852 93.144531 L 214.72852 115.6582 L 177.2207 115.6582 L 177.2207 258.81836 L 214.72852 258.81836 L 214.72852 446.95117 C 126.55933 428.06095 60.662109 349.90208 60.662109 256 C 60.662109 147.92862 147.92862 60.662109 256 60.662109 z M 255.70117 137.36523 A 44.328648 44.328648 0 0 1 300.03125 181.69531 A 44.328648 44.328648 0 0 1 255.70117 226.02344 A 44.328648 44.328648 0 0 1 211.37305 181.69531 A 44.328648 44.328648 0 0 1 255.70117 137.36523 z " />
  </g>
</svg>
